<svg width="200" height="200" viewBox="0 0 200 200" fill="none" xmlns="http://www.w3.org/2000/svg">
  <!-- Clay Oven (Tanour) Shape -->
  <path d="M100 20C55.8172 20 20 55.8172 20 100C20 144.183 55.8172 180 100 180C144.183 180 180 144.183 180 100C180 55.8172 144.183 20 100 20Z" fill="#18181B" stroke="#EA580C" stroke-width="4"/>
  
  <!-- Ember/Flame (Jamr) Core -->
  <path d="M100 150C100 150 135 120 135 90C135 70.67 119.33 55 100 55C80.67 55 65 70.67 65 90C65 120 100 150 100 150Z" fill="url(#paint0_linear)"/>
  <path d="M100 140C100 140 120 120 120 100C120 88.9543 111.046 80 100 80C88.9543 80 80 88.9543 80 100C80 120 100 140 100 140Z" fill="#FDBA74"/>
  
  <!-- Base Embers -->
  <rect x="70" y="145" width="60" height="8" rx="4" fill="#EA580C"/>
  <rect x="85" y="156" width="30" height="4" rx="2" fill="#9A3412"/>

  <defs>
    <linearGradient id="paint0_linear" x1="100" y1="55" x2="100" y2="150" gradientUnits="userSpaceOnUse">
      <stop stop-color="#EA580C"/>
      <stop offset="1" stop-color="#9A3412"/>
    </linearGradient>
  </defs>
</svg>
